<?xml version="1.0" encoding="UTF-8"?>
<svg width="256" height="256" viewBox="0 0 256 256" fill="none" xmlns="http://www.w3.org/2000/svg" role="img" aria-label="Tràmit Ambiental">
  <defs>
    <linearGradient id="g" x1="56" y1="40" x2="200" y2="216" gradientUnits="userSpaceOnUse">
      <stop stop-color="#2E7D32"/>
      <stop offset="1" stop-color="#81C784"/>
    </linearGradient>
    <filter id="s" x="-20%" y="-20%" width="140%" height="140%" color-interpolation-filters="sRGB">
      <feDropShadow dx="0" dy="6" stdDeviation="8" flood-color="#000" flood-opacity="0.18"/>
    </filter>
  </defs>

  <!-- Soft circle badge -->
  <circle cx="128" cy="128" r="104" fill="url(#g)" filter="url(#s)"/>
  <circle cx="128" cy="128" r="104" fill="none" stroke="rgba(255,255,255,0.28)" stroke-width="8"/>

  <!-- Leaf mark -->
  <path d="M179 74C154 76 135 88 123 108C110 130 110 155 122 179C102 176 86 166 77 149C65 127 72 99 92 84C115 66 146 62 179 74Z" fill="rgba(255,255,255,0.92)"/>
  <path d="M91 166C118 150 142 128 165 98" stroke="#1B5E20" stroke-width="10" stroke-linecap="round"/>
  <path d="M111 160C116 145 123 132 133 118" stroke="#1B5E20" stroke-width="8" stroke-linecap="round" opacity="0.65"/>
</svg>
